<svg viewBox="0 0 24 24" xmlns="http://www.w3.org/2000/svg" fill="currentColor">
  <path d="M11.944 0A12 12 0 0 0 0 12a12 12 0 0 0 12 12 12 12 0 0 0 12-12A12 12 0 0 0 12 0a12 12 0 0 0-.056 0zm4.962 7.224c.1-.002.321.023.465.14a1.06 1.06 0 0 1 .171.145c.016.009.079.06.244.204.888.659 1.337.995 1.456 1.07.05.035.1.085.1.17 0 .05-.003.095-.01.141-.03.195-.323 1.47-.563 2.366-.161.743-.295 1.348-.295 1.468 0 .144.096.192.2.163.532-.126 1.324-.476 2.267-1.025l.169-.11c.185-.122.381-.268.381-.579a1.03 1.03 0 0 0-.769-.957c-.293-.132-1.439-.176-2.084-.176h-.35a.766.766 0 0 0-.766.766v8.7a.768.768 0 0 0 .766.766h1.346a.766.766 0 0 0 .766-.766V9.79c0-.128.087-.217.215-.217h.738zm3.342-.882a1.03 1.03 0 1 0 0 2.061 1.03 1.03 0 0 0 0-2.061z"/>
</svg>