<svg viewBox="0 0 24 24" xmlns="http://www.w3.org/2000/svg" fill="currentColor">
  <path d="M17.472 14.382c-.297-.149-1.758-.867-2.03-.967-.273-.099-.471-.148-.67.15-.197.297-.767.966-.94 1.164-.173.199-.347.223-.644.075-.297-.15-1.255-.463-2.39-1.475-.883-.788-1.48-1.761-1.653-2.059-.173-.297-.018-.458.13-.606.134-.133.298-.347.446-.52.149-.174.198-.298.298-.497.099-.198.05-.371-.025-.52-.075-.149-.669-1.612-.916-2.207-.242-.579-.487-.5-.67-.51-.173-.008-.371-.01-.57-.01-.198 0-.52.074-.792.372-.272.297-1.04 1.016-1.04 2.479 0 1.462 1.065 2.875 1.213 3.074.149.198 2.096 3.2 5.076 4.487.709.306 1.262.489 1.694.625.712.227 1.36.195 1.871.118.571-.085 1.758-.719 2.006-1.413.248-.694.248-1.289.173-1.413-.074-.124-.272-.198-.57-.347m-5.421-7.403h-.004a9.87 9.87 0 00-5.031 1.378c-3.055 2.364-3.905 6.75-1.896 10.157 1.549 2.521 4.464 3.868 7.267 3.368 1.903-.338 3.65-1.081 5.003-2.275.763-.68 1.431-1.446 1.96-2.28l-.073.09c.204-.267.37-.556.492-.857.12-.301.215-.611.281-.924.148-.779.145-1.379.145-1.379s.008-.766-.072-1.545c-.045-.529-.127-1.04-.24-1.522-.226-.971-.624-1.84-1.175-2.596-1.535-2.183-4.381-3.472-7.366-3.472zm0 0"/>
</svg>